<?xml version="1.0" encoding="iso-8859-1"?>
<!-- Generator: Adobe Illustrator 17.1.0, SVG Export Plug-In . SVG Version: 6.00 Build 0)  -->
<!DOCTYPE svg PUBLIC "-//W3C//DTD SVG 1.1//EN" "http://www.w3.org/Graphics/SVG/1.1/DTD/svg11.dtd">
<svg version="1.1" id="Capa_1" xmlns="http://www.w3.org/2000/svg" xmlns:xlink="http://www.w3.org/1999/xlink" x="0px" y="0px"
	 viewBox="0 0 442 442" style="enable-background:new 0 0 442 442;" xml:space="preserve">
<g>
	<path d="M30,140h382c0.008,0.001,0.014,0,0.02,0c5.523,0,10-4.478,10-10c0-3.746-2.059-7.011-5.107-8.724L226.32,1.532
		c-3.254-2.043-7.387-2.043-10.641,0l-191,120c-3.773,2.371-5.522,6.953-4.289,11.236C21.624,137.051,25.543,140,30,140z M221,21.81
		L377.286,120H64.714L221,21.81z"/>
	<path d="M432,372h-10v-30c0-5.522-4.478-10-10-10h-10V180h10c5.522,0,10-4.478,10-10s-4.478-10-10-10H30c-5.522,0-10,4.478-10,10
		s4.478,10,10,10h10v152H30c-5.522,0-10,4.478-10,10v30H10c-5.522,0-10,4.478-10,10v50c0,5.522,4.478,10,10,10h422
		c5.522,0,10-4.478,10-10v-50C442,376.478,437.522,372,432,372z M382,332h-20V180h20V332z M302.667,332V180H342v152H302.667z
		 M262.667,332V180h20v152H262.667z M199.333,332V180h43.334v152H199.333z M159.333,332V180h20v152H159.333z M100,332V180h39.333
		v152H100z M60,180h20v152H60V180z M422,422H20v-30h80.611c5.522,0,10-4.478,10-10s-4.478-10-10-10H40v-20h362v20H134.723
		c-5.522,0-10,4.478-10,10s4.478,10,10,10H422V422z"/>
</g>
<g>
</g>
<g>
</g>
<g>
</g>
<g>
</g>
<g>
</g>
<g>
</g>
<g>
</g>
<g>
</g>
<g>
</g>
<g>
</g>
<g>
</g>
<g>
</g>
<g>
</g>
<g>
</g>
<g>
</g>
</svg>
