<?xml version="1.0" encoding="iso-8859-1"?>
<!-- Generator: Adobe Illustrator 18.0.0, SVG Export Plug-In . SVG Version: 6.00 Build 0)  -->
<!DOCTYPE svg PUBLIC "-//W3C//DTD SVG 1.1//EN" "http://www.w3.org/Graphics/SVG/1.1/DTD/svg11.dtd">
<svg version="1.1" id="Capa_1" xmlns="http://www.w3.org/2000/svg" xmlns:xlink="http://www.w3.org/1999/xlink" x="0px" y="0px"
	 viewBox="0 0 270 270" style="enable-background:new 0 0 270 270;" xml:space="preserve">
<g>
	<path d="M58.744,160.491H80c3.313,0,6-2.687,6-6s-2.687-6-6-6H64.744V141H80c3.313,0,6-2.687,6-6s-2.687-6-6-6H64.744v-7.491H80
		c3.313,0,6-2.687,6-6s-2.687-6-6-6H58.744c-3.313,0-6,2.687-6,6v38.981C52.744,157.804,55.431,160.491,58.744,160.491z"/>
	<path d="M95.698,159.156c1.111,0.898,2.444,1.335,3.77,1.335c1.749,0,3.483-0.761,4.668-2.227l11.099-13.723l11.099,13.723
		c1.186,1.466,2.919,2.227,4.668,2.227c1.325,0,2.659-0.437,3.77-1.335c2.577-2.084,2.976-5.862,0.892-8.438L122.953,135
		l12.712-15.717c2.084-2.577,1.685-6.354-0.892-8.438c-2.574-2.083-6.353-1.684-8.438,0.892l-11.099,13.723l-11.099-13.723
		c-2.084-2.576-5.861-2.976-8.438-0.892c-2.576,2.084-2.976,5.862-0.892,8.438L107.519,135l-12.712,15.717
		C92.722,153.294,93.122,157.072,95.698,159.156z"/>
	<path d="M155.077,160.491c3.313,0,6-2.687,6-6v-38.981c0-3.313-2.687-6-6-6s-6,2.687-6,6v38.981
		C149.077,157.804,151.763,160.491,155.077,160.491z"/>
	<path d="M175.714,121.509h11.771v32.981c0,3.313,2.687,6,6,6s6-2.687,6-6v-32.981h11.771c3.313,0,6-2.687,6-6s-2.687-6-6-6h-35.542
		c-3.313,0-6,2.687-6,6S172.4,121.509,175.714,121.509z"/>
	<path d="M264,76.097H6c-3.313,0-6,2.686-6,6v105.807c0,3.314,2.687,6,6,6h258c3.313,0,6-2.686,6-6V82.097
		C270,78.783,267.313,76.097,264,76.097z M258,181.903H12V88.097h246V181.903z"/>
</g>
<g>
</g>
<g>
</g>
<g>
</g>
<g>
</g>
<g>
</g>
<g>
</g>
<g>
</g>
<g>
</g>
<g>
</g>
<g>
</g>
<g>
</g>
<g>
</g>
<g>
</g>
<g>
</g>
<g>
</g>
</svg>
