<?xml version="1.0" encoding="iso-8859-1"?>
<!-- Generator: Adobe Illustrator 19.0.0, SVG Export Plug-In . SVG Version: 6.00 Build 0)  -->
<svg version="1.1" id="Layer_1" xmlns="http://www.w3.org/2000/svg" xmlns:xlink="http://www.w3.org/1999/xlink" x="0px" y="0px"
	 viewBox="0 0 504.32 504.32" style="enable-background:new 0 0 504.32 504.32;" xml:space="preserve">
<g transform="translate(21 1)">
	<g>
		<path style="fill:#E4F2DE;" d="M291.747,208.92v238.933h-51.2V328.387V311.32V191.853V132.12l-0.853-1.707
			c1.707-0.853,3.413-1.707,5.12-2.56l0.853,0.853l20.48,20.48v17.067l42.667-42.667l34.133,34.133L291.747,208.92z"/>
		<path style="fill:#E4F2DE;" d="M245.667,127.853c-1.707,0.853-3.413,1.707-5.12,2.56c-2.56,0.853-5.12,1.707-7.68,1.707
			c-6.827,0-13.653-2.56-17.92-7.68c-4.267-4.267-7.68-11.093-7.68-17.92v-25.6h25.6h25.6v25.6
			C257.613,115.907,252.493,123.587,245.667,127.853"/>
		<path style="fill:#E4F2DE;" d="M172.28,38.253c-6.827,42.667-4.267,64,0,68.267l17.067,17.067h17.067l7.68,0.853
			c4.267,4.267,11.093,7.68,17.92,7.68c2.56,0,5.12,0,7.68-1.707l0.853,1.707v59.733l-51.2,51.2V157.72l-25.6-25.6
			c0,0-8.533-17.067-8.533-34.133s8.533-59.733,8.533-59.733s3.413,0,8.533-0.853V38.253z"/>
	</g>
	<path style="fill:#FFD0A1;" d="M155.213,447.853h17.067h68.267h51.2h17.067v51.2h-76.8h-76.8V447.853z M163.747,38.253
		c0-34.133,34.133-34.133,34.133-34.133c0,23.04-16.213,30.72-25.6,33.28C167.16,38.253,163.747,38.253,163.747,38.253z"/>
	<polygon style="fill:#E4F2DE;" points="172.28,447.853 172.28,260.12 189.347,243.053 240.547,191.853 240.547,311.32 
		240.547,328.387 240.547,447.853 	"/>
</g>
<path style="fill:#51565F;" d="M500.48,504.32H5.547c-2.56,0-4.267-1.707-4.267-4.267c0-2.56,1.707-4.267,4.267-4.267h166.4V453.12
	h-12.8c-2.56,0-4.267-1.707-4.267-4.267c0-2.56,1.707-4.267,4.267-4.267h29.867V261.12c0-0.853,0.853-2.56,0.853-3.413
	l16.213-16.213v-81.92l-24.747-24.747l-0.853-0.853c0-0.853-9.387-17.92-9.387-35.84c0-16.213,7.68-55.467,8.533-60.587
	c0-29.867,25.6-37.547,38.4-37.547c2.56,0,4.267,1.707,4.267,4.267c0,28.16-21.333,36.693-34.987,38.4
	c-1.707,10.24-7.68,41.813-7.68,55.467c0,14.507,5.973,28.16,7.68,31.573l24.747,24.747c0.853,0.853,0.853,1.707,0.853,3.413v75.093
	l42.667-42.667V158.72c0-2.56,1.707-4.267,4.267-4.267s4.267,1.707,4.267,4.267v34.133l0,0V302.08l17.92-17.92
	c1.707-1.707,4.267-1.707,5.973,0c0.853,0.853,0.853,1.707,0.853,3.413s0,2.56-0.853,3.413l-24.747,24.747v15.36l0,0v93.867
	c0,2.56-1.707,4.267-4.267,4.267s-4.267-1.707-4.267-4.267v-83.627l-25.6,25.6v58.027c0,2.56-1.707,4.267-4.267,4.267
	s-4.267-1.707-4.267-4.267v-49.493l-0.853,0.853c-1.707,1.707-4.267,1.707-5.973,0c-0.853-0.853-0.853-1.707-0.853-3.413
	s0-2.56,0.853-3.413l8.533-8.533l0,0l33.28-33.28v-15.36l0,0V203.094l-43.52,43.52l0,0l-16.213,16.213v181.76h149.333
	c2.56,0,4.267,1.707,4.267,4.267c0,2.56-1.707,4.267-4.267,4.267h-12.8v42.667h166.4c2.56,0,4.267,1.707,4.267,4.267
	C503.04,502.613,503.04,504.32,500.48,504.32z M257.28,495.787h68.267V453.12H180.48v42.667h68.267v-12.8
	c0-2.56,1.707-4.267,4.267-4.267s4.267,1.707,4.267,4.267V495.787z M214.613,10.24c-7.68,0.853-23.04,5.973-24.747,24.747
	C196.693,33.28,212.053,28.16,214.613,10.24z M312.747,427.52c-2.56,0-4.267-1.707-4.267-4.267V209.92
	c0-0.853,0.853-2.56,0.853-3.413l47.787-47.787l-28.16-28.16l-36.693,36.693l5.12,5.12c1.707,1.707,1.707,4.267,0,5.973
	s-4.267,1.707-5.973,0l-8.533-8.533c-1.707-1.707-1.707-4.267,0-5.973l42.667-42.667c1.707-1.707,4.267-1.707,5.973,0l34.133,34.133
	c1.707,1.707,1.707,4.267,0,5.973l-50.347,50.347v211.627C317.013,425.813,315.307,427.52,312.747,427.52z M253.013,137.387
	c-15.36,0-27.307-11.093-29.867-25.6h-12.8c-2.56,0-4.267-1.707-4.267-4.267s1.707-4.267,4.267-4.267h12.8V83.627l-15.36-15.36
	c-0.853-0.853-0.853-1.707-0.853-3.413c0-1.707,0-2.56,0.853-3.413c1.707-1.707,4.267-1.707,5.973,0l15.36,15.36h19.627V56.32
	c0-2.56,1.707-4.267,4.267-4.267s4.267,1.707,4.267,4.267v21.333h19.627l15.36-15.36c1.707-1.707,4.267-1.707,5.973,0
	c0.853,0.853,0.853,1.707,0.853,3.413c0,1.707,0,2.56-0.853,3.413l-15.36,15.36v19.627h12.8c2.56,0,4.267,1.707,4.267,4.267
	c0,2.56-1.707,4.267-4.267,4.267h-12.8C280.32,126.293,268.373,137.387,253.013,137.387z M231.68,107.52
	c0,11.947,9.387,21.333,21.333,21.333s21.333-9.387,21.333-21.333V86.187H231.68V107.52L231.68,107.52L231.68,107.52z"/>
<g>
</g>
<g>
</g>
<g>
</g>
<g>
</g>
<g>
</g>
<g>
</g>
<g>
</g>
<g>
</g>
<g>
</g>
<g>
</g>
<g>
</g>
<g>
</g>
<g>
</g>
<g>
</g>
<g>
</g>
</svg>
