<?xml version="1.0" encoding="UTF-8" standalone="no"?>
<!-- edited from https://openclipart.org/detail/289605/virus  by Designer.io -->
<!DOCTYPE svg PUBLIC "-//W3C//DTD SVG 1.1//EN" "http://www.w3.org/Graphics/SVG/1.1/DTD/svg11.dtd">
<svg height="100%" style="fill-rule:evenodd;clip-rule:evenodd;stroke-linecap:round;stroke-linejoin:round;" xmlns:xlink="http://www.w3.org/1999/xlink" xmlns="http://www.w3.org/2000/svg" xml:space="preserve" width="100%" version="1.1" viewBox="0 0 450 450">
<defs/>
<g id="virus">
<path d="M300.587+315.19C288.493+315.19+294.52+287.011+294.52+282.95C295.547+280.944+285.469+161.034+285.469+161.034C286.497+156.972+288.493+151.933+295.547+151.933L297.553+151.933C313.698+151.933+327.788+138.831+327.788+122.726C327.788+106.581+314.686+93.469+297.553+93.469C281.458+93.469+267.318+106.581+267.318+122.726C267.318+125.75+267.318+128.743+268.346+131.777C268.346+131.777+274.363+146.894+261.292+144.888C261.292+144.888+147.408+184.173+142.369+185.201C128.229+210.397+91.978+197.295+80.872+189.212C77.848+185.201+71.821+182.168+64.777+182.168C52.561+182.255+42.674+192.124+42.564+204.34C43.592+215.436+53.67+225.514+65.764+225.514C69.826+225.514+74.865+224.486+77.858+222.491C95.999+213.42+129.267+219.447+133.288+235.592L133.288+236.62C134.296+239.603+157.476+285.983+160.51+289.994C175.627+318.223+138.297+329.33+138.297+329.33C128.219+329.33+119.169+338.38+119.169+349.486C119.169+361.57+129.247+371.648+141.341+371.648C153.414+371.648+163.493+361.57+163.493+349.476C166.526+326.296+178.61+311.179+200.822+310.151C203.806+311.179+258.258+307.168+262.269+306.14C278.415+309.163+269.324+322.285+269.324+344.437C269.324+360.542+282.426+373.664+299.559+373.664C315.694+373.664+329.793+360.542+329.793+344.437C330.811+328.312+317.699+315.19+300.577+315.19L300.587+315.19Z" opacity="1" fill="#040404"/>
<path stroke="#eeeeee" stroke-width="1.6" d="M367.123+167.06C358.022+167.06+350.978+171.112+347.944+179.134C338.894+192.246+319.725+195.279+307.631+189.212C305.626+184.173+178.63+149.927+178.63+150.955C162.525+160.006+147.408+131.777+148.396+118.665L148.396+117.687C149.413+114.654+149.413+111.62+149.413+108.587C149.413+92.492+136.312+79.38+119.179+79.38C103.033+79.38+88.944+92.482+88.944+108.587C88.944+121.698+97.994+131.777+108.073+136.816C125.246+143.87+148.385+164.027+146.38+178.156C153.435+190.24+137.33+252.715+138.317+257.754C129.257+266.855+111.106+264.809+104.061+261.816C101.038+257.754+95.011+255.749+88.944+255.749C72.799+255.749+58.71+268.85+58.71+284.955C58.71+301.101+71.811+314.212+88.944+314.212C99.022+314.212+107.085+310.151+113.112+302.118C122.212+289.017+137.33+276.923+150.441+276.923C152.447+279.916+314.676+216.454+314.676+215.436C315.704+209.369+339.871+203.342+361.056+208.381L367.123+208.381C379.207+208.381+389.285+198.303+389.285+186.229C389.285+174.095+379.207+167.05+367.113+167.05L367.123+167.06Z" fill="#040404" stroke-linecap="round" opacity="1" stroke-linejoin="round"/>
<path stroke="#000000" stroke-width="1" d="M315.704+225.514C315.704+275.593+275.079+316.218+225+316.218C174.921+316.218+134.296+275.593+134.296+225.514C134.296+175.435+174.921+134.81+225+134.81C275.079+134.81+315.704+175.435+315.704+225.514Z" fill="#ffffff" stroke-linecap="round" opacity="1" stroke-linejoin="round"/>
<path stroke="#eeeeee" stroke-width="1.64" d="M248.18+311.179C251.224+305.112+240.117+303.116+231.067+303.116C221.966+303.116+212.916+308.155+214.922+314.202C239.089+350.464+220.989+355.503+209.883+362.598C200.832+366.609+194.765+377.715+194.765+387.793C194.765+403.888+207.867+417+225+417C242.133+417+255.235+403.898+255.235+387.793C256.263+359.564+238.102+320.229+248.18+311.179ZM375.145+254.721C369.128+254.721+363.061+255.749+359.05+258.782C340.899+265.827+324.754+252.715+312.67+244.642C306.654+240.631+299.569+250.71+297.553+253.743C295.547+256.767+292.514+270.866+304.608+270.866C324.764+263.811+349.96+299.085+349.96+299.085C354.011+309.163+365.077+315.19+377.201+315.19C393.296+315.19+407.436+302.129+407.436+285.983C404.402+267.842+391.29+254.721+375.145+254.721ZM198.776+79.38C217.955+118.665+216.927+133.782+205.872+137.834C196.771+144.888+211.888+153.939+222.994+151.943C234.05+149.927+244.128+144.888+237.084+134.81C219.961+104.575+242.123+84.419+242.123+84.419C249.178+80.408+254.217+71.317+254.217+62.247C254.217+46.122+241.145+33+223.982+33C206.849+33+193.747+46.112+193.747+62.257C193.747+66.268+194.765+71.307+196.771+75.359C196.771+78.352+196.771+78.352+198.787+79.38L198.776+79.38Z" fill="#040404" stroke-linecap="round" opacity="1" stroke-linejoin="round"/>
<path d="M208.855+225.514C192.76+225.514+178.62+212.412+178.62+196.307C178.62+180.162+191.732+167.05+208.855+167.05C226.028+167.05+239.089+180.162+239.089+196.307C239.089+212.402+226.028+225.514+208.855+225.514Z" opacity="1" fill="#040404"/>
<path d="M193.737+269.838C184.687+269.838+178.62+263.821+178.62+254.721C178.62+245.67+184.687+239.603+193.737+239.603C202.838+239.603+208.855+245.67+208.855+254.721C208.855+263.821+202.838+269.838+193.737+269.838Z" opacity="1" fill="#040404"/>
<path d="M247.172+285.983C235.078+285.983+225+275.905+225+263.811C225+251.737+235.078+241.659+247.172+241.659C259.246+241.659+269.324+251.737+269.324+263.821C269.324+275.905+259.246+285.983+247.162+285.983L247.172+285.983Z" opacity="1" fill="#040404"/>
<path d="M0+0L450+0L450+0L450+450L450+450L0+450L0+450L0+0L0+0Z" opacity="1" fill="none"/>
<path d="M248.18+311.179C251.224+305.112+240.117+303.116+231.067+303.116C221.966+303.116+212.916+308.155+214.922+314.202C239.089+350.464+220.989+355.503+209.883+362.598C200.832+366.609+194.765+377.715+194.765+387.793C194.765+403.888+207.867+417+225+417C242.133+417+255.235+403.898+255.235+387.793C256.263+359.564+238.102+320.229+248.18+311.179ZM375.145+254.721C369.128+254.721+363.061+255.749+359.05+258.782C340.899+265.827+324.754+252.715+312.67+244.642C306.654+240.631+299.569+250.71+297.553+253.743C295.547+256.767+292.514+270.866+304.608+270.866C324.764+263.811+349.96+299.085+349.96+299.085C354.011+309.163+365.077+315.19+377.201+315.19C393.296+315.19+407.436+302.129+407.436+285.983C404.402+267.842+391.29+254.721+375.145+254.721ZM198.776+79.38C217.955+118.665+216.927+133.782+205.872+137.834C196.771+144.888+211.888+153.939+222.994+151.943C234.05+149.927+244.128+144.888+237.084+134.81C219.961+104.575+242.123+84.419+242.123+84.419C249.178+80.408+254.217+71.317+254.217+62.247C254.217+46.122+241.145+33+223.982+33C206.849+33+193.747+46.112+193.747+62.257C193.747+66.268+194.765+71.307+196.771+75.359C196.771+78.352+196.771+78.352+198.787+79.38L198.776+79.38Z" fill="#040404" opacity="1"/>
</g>
</svg>